<svg xmlns="http://www.w3.org/2000/svg" xmlns:xlink="http://www.w3.org/1999/xlink" width="32" height="32">
  <defs>
    <g id="icon-addScreen">
      <rect x="0" y="0" width="24" height="24" fill="black" stroke="none" />
      <g transform="translate(0 0)">
        <path fill="none" d="M0 0h24v24H0V0z"/>
        <path d="M21 3H3c-1.11 0-2 .89-2 2v12c0 1.1.89 2 2 2h5v2h8v-2h5c1.1 0 1.99-.9 1.99-2L23 5c0-1.11-.9-2-2-2zm0 14H3V5h18v12zm-5-7v2h-3v3h-2v-3H8v-2h3V7h2v3h3z"/>
      </g>
    </g>

    <g id="icon-table">
      <rect x="0" y="0" width="24" height="24" fill="black" stroke="none" />
      <g transform="translate(0 0)">
        <path d="M18.5 0h-14A2.5 2.5 0 0 0 2 2.5v19A2.5 2.5 0 0 0 4.5 24h14a2.5 2.5 0 0 0 2.5-2.5v-19A2.5 2.5 0 0 0 18.5 0zm-7 23c-.83 0-1.5-.67-1.5-1.5s.67-1.5 1.5-1.5 1.5.67 1.5 1.5-.67 1.5-1.5 1.5zm7.5-4H4V3h15v16z"/>
      </g>
    </g>

    <g id="icon-phone">
      <rect x="0" y="0" width="24" height="24" fill="black" stroke="none" />
      <g transform="translate(0 0)">
        <path d="M15.5 1h-8A2.5 2.5 0 0 0 5 3.5v17A2.5 2.5 0 0 0 7.5 23h8a2.5 2.5 0 0 0 2.5-2.5v-17A2.5 2.5 0 0 0 15.5 1zm-4 21c-.83 0-1.5-.67-1.5-1.5s.67-1.5 1.5-1.5 1.5.67 1.5 1.5-.67 1.5-1.5 1.5zm4.5-4H7V4h9v14z"/>
        <path d="M0 0h24v24H0z" fill="none"/>
      </g>
    </g>

  </defs>

  <!--<use xlink:href="#icon-cluster-1" />-->
</svg>
