<svg xmlns="http://www.w3.org/2000/svg" xmlns:xlink="http://www.w3.org/1999/xlink" width="32" height="32">
  <defs>
    <g id="icon-addScreen">
      <rect x="0" y="0" width="24" height="24" fill="black" stroke="none" />
      <g transform="translate(0 0)">
        <path fill="none" d="M0 0h24v24H0V0z"/>
        <path d="M21 3H3c-1.11 0-2 .89-2 2v12c0 1.1.89 2 2 2h5v2h8v-2h5c1.1 0 1.99-.9 1.99-2L23 5c0-1.11-.9-2-2-2zm0 14H3V5h18v12zm-5-7v2h-3v3h-2v-3H8v-2h3V7h2v3h3z"/>
      </g>
    </g>

    <g id="icon-delete">
      <rect x="0" y="0" width="24" height="24" fill="black" stroke="none" />
      <g transform="translate(0 0)">
        <path d="M6 19c0 1.1.9 2 2 2h8c1.1 0 2-.9 2-2V7H6v12zM19 4h-3.5l-1-1h-5l-1 1H5v2h14V4z"/>
        <path d="M0 0h24v24H0z" fill="none"/>
      </g>
    </g>

    <g id="icon-dashboard">
      <path d="M0 0h24v24H0z" fill="none"/>
      <path d="M3 13h8V3H3v10zm0 8h8v-6H3v6zm10 0h8V11h-8v10zm0-18v6h8V3h-8z"/>
    </g>

    <g id="icon-save">
      <path d="M0 0h24v24H0z" fill="none"/>
      <path d="M17 3H5a2 2 0 0 0-2 2v14a2 2 0 0 0 2 2h14c1.1 0 2-.9 2-2V7l-4-4zm-5 16c-1.66 0-3-1.34-3-3s1.34-3 3-3 3 1.34 3 3-1.34 3-3 3zm3-10H5V5h10v4z"/>
    </g>

    <g id="icon-addCircle">
      <rect x="0" y="0" width="24" height="24" fill="black" stroke="none" />
      <path d="M0 0h24v24H0z" fill="none"/>
      <path d="M13 7h-2v4H7v2h4v4h2v-4h4v-2h-4V7zm-1-5C6.48 2 2 6.48 2 12s4.48 10 10 10 10-4.48 10-10S17.52 2 12 2zm0 18c-4.41 0-8-3.59-8-8s3.59-8 8-8 8 3.59 8 8-3.59 8-8 8z"/>
    </g>

    <g id="icon-computer">
      <rect x="0" y="0" width="24" height="24" fill="black" stroke="none" />
      <g transform="translate(0 0)">
        <path d="M0 0h24v24H0z" fill="none"/>
        <path d="M20 18c1.1 0 1.99-.9 1.99-2L22 6c0-1.1-.9-2-2-2H4c-1.1 0-2 .9-2 2v10c0 1.1.9 2 2 2H0v2h24v-2h-4zM4 6h16v10H4V6z"/>
      </g>
    </g>

    <g id="icon-table">
      <rect x="0" y="0" width="24" height="24" fill="black" stroke="none" />
      <g transform="translate(0 0)">
        <path d="M18.5 0h-14A2.5 2.5 0 0 0 2 2.5v19A2.5 2.5 0 0 0 4.5 24h14a2.5 2.5 0 0 0 2.5-2.5v-19A2.5 2.5 0 0 0 18.5 0zm-7 23c-.83 0-1.5-.67-1.5-1.5s.67-1.5 1.5-1.5 1.5.67 1.5 1.5-.67 1.5-1.5 1.5zm7.5-4H4V3h15v16z"/>
      </g>
    </g>

    <g id="icon-phone">
      <rect x="0" y="0" width="24" height="24" fill="black" stroke="none" />
      <g transform="translate(0 0)">
        <path d="M15.5 1h-8A2.5 2.5 0 0 0 5 3.5v17A2.5 2.5 0 0 0 7.5 23h8a2.5 2.5 0 0 0 2.5-2.5v-17A2.5 2.5 0 0 0 15.5 1zm-4 21c-.83 0-1.5-.67-1.5-1.5s.67-1.5 1.5-1.5 1.5.67 1.5 1.5-.67 1.5-1.5 1.5zm4.5-4H7V4h9v14z"/>
        <path d="M0 0h24v24H0z" fill="none"/>
      </g>
    </g>

    <g id="icon-edit">
      <rect x="0" y="0" width="24" height="24" fill="black" stroke="none" />
      <g transform="translate(0 0)">
        <svg xmlns="http://www.w3.org/2000/svg" width="24" height="24"><path d="M3 17.25V21h3.75L17.81 9.94l-3.75-3.75L3 17.25zM20.71 7.04a.996.996 0 0 0 0-1.41l-2.34-2.34a.996.996 0 0 0-1.41 0l-1.83 1.83 3.75 3.75 1.83-1.83z"/>
        <path d="M0 0h24v24H0z" fill="none"/>
      </g>
    </g>

  </defs>
</svg>
